<svg width="131" height="23" viewBox="0 0 131 23" fill="none" xmlns="http://www.w3.org/2000/svg">
<path d="M0.915 15V4.47H2.865L7.44 11.805V4.5H9.27V15.03H7.335L2.76 7.8V15H0.915ZM18.4007 13.515C18.7107 13.515 18.9957 13.48 19.2557 13.41C19.5257 13.34 19.7657 13.22 19.9757 13.05C20.1957 12.87 20.3807 12.64 20.5307 12.36C20.6907 12.08 20.8107 11.725 20.8907 11.295C20.9807 10.855 21.0257 10.34 21.0257 9.75C21.0257 9.15 20.9807 8.635 20.8907 8.205C20.8007 7.765 20.6757 7.405 20.5157 7.125C20.3657 6.835 20.1857 6.605 19.9757 6.435C19.7657 6.265 19.5257 6.145 19.2557 6.075C18.9857 6.005 18.7007 5.97 18.4007 5.97C18.1107 5.97 17.8357 6.005 17.5757 6.075C17.3157 6.145 17.0757 6.265 16.8557 6.435C16.6457 6.595 16.4607 6.82 16.3007 7.11C16.1507 7.4 16.0307 7.765 15.9407 8.205C15.8607 8.635 15.8207 9.15 15.8207 9.75C15.8207 10.35 15.8607 10.865 15.9407 11.295C16.0307 11.715 16.1557 12.07 16.3157 12.36C16.4757 12.65 16.6607 12.88 16.8707 13.05C17.0907 13.22 17.3257 13.34 17.5757 13.41C17.8357 13.48 18.1107 13.515 18.4007 13.515ZM18.4157 15.15C17.8457 15.15 17.3207 15.095 16.8407 14.985C16.3607 14.865 15.9257 14.68 15.5357 14.43C15.1457 14.17 14.8157 13.835 14.5457 13.425C14.2857 13.005 14.0807 12.495 13.9307 11.895C13.7907 11.285 13.7207 10.57 13.7207 9.75C13.7207 8.93 13.7857 8.22 13.9157 7.62C14.0557 7.02 14.2557 6.515 14.5157 6.105C14.7857 5.685 15.1157 5.345 15.5057 5.085C15.8957 4.815 16.3307 4.625 16.8107 4.515C17.2907 4.405 17.8257 4.35 18.4157 4.35C18.9957 4.35 19.5307 4.41 20.0207 4.53C20.5107 4.64 20.9457 4.82 21.3257 5.07C21.7057 5.32 22.0307 5.655 22.3007 6.075C22.5707 6.485 22.7757 6.99 22.9157 7.59C23.0557 8.19 23.1257 8.895 23.1257 9.705C23.1257 10.545 23.0557 11.27 22.9157 11.88C22.7757 12.49 22.5657 13.005 22.2857 13.425C22.0157 13.835 21.6907 14.17 21.3107 14.43C20.9307 14.68 20.4957 14.865 20.0057 14.985C19.5257 15.095 18.9957 15.15 18.4157 15.15ZM34.867 6.315H31.732V15H29.677V6.315H26.527V4.5H34.867V6.315ZM38.9921 15V4.5H46.1921V6.3H41.0771V8.73H45.8321V10.485H41.0771V13.2H46.4621V15H38.9921ZM57.7656 15V4.5H64.9656V6.3H59.8506V8.73H64.6056V10.485H59.8506V13.2H65.2356V15H57.7656ZM73.38 15.15C72.91 15.15 72.455 15.145 72.015 15.135C71.585 15.125 71.165 15.11 70.755 15.09C70.345 15.07 69.94 15.05 69.54 15.03V4.5C69.99 4.46 70.415 4.43 70.815 4.41C71.225 4.39 71.63 4.375 72.03 4.365C72.43 4.355 72.84 4.35 73.26 4.35C74.45 4.35 75.415 4.54 76.155 4.92C76.895 5.29 77.435 5.875 77.775 6.675C78.125 7.465 78.3 8.495 78.3 9.765C78.3 11.005 78.115 12.025 77.745 12.825C77.385 13.615 76.84 14.2 76.11 14.58C75.39 14.96 74.48 15.15 73.38 15.15ZM73.5 13.515C74.08 13.515 74.565 13.395 74.955 13.155C75.355 12.905 75.655 12.505 75.855 11.955C76.055 11.405 76.155 10.68 76.155 9.78C76.155 8.84 76.055 8.095 75.855 7.545C75.665 6.995 75.37 6.6 74.97 6.36C74.57 6.12 74.055 6 73.425 6C73.245 6 73.045 6.005 72.825 6.015C72.615 6.015 72.405 6.02 72.195 6.03C71.995 6.04 71.8 6.05 71.61 6.06V13.44C71.76 13.45 71.915 13.46 72.075 13.47C72.235 13.48 72.395 13.49 72.555 13.5C72.715 13.5 72.875 13.505 73.035 13.515C73.195 13.515 73.35 13.515 73.5 13.515ZM82.7353 15V4.5H84.7903V15H82.7353ZM97.2371 6.315H94.1021V15H92.0471V6.315H88.8971V4.5H97.2371V6.315ZM105.33 13.515C105.64 13.515 105.925 13.48 106.185 13.41C106.455 13.34 106.695 13.22 106.905 13.05C107.125 12.87 107.31 12.64 107.46 12.36C107.62 12.08 107.74 11.725 107.82 11.295C107.91 10.855 107.955 10.34 107.955 9.75C107.955 9.15 107.91 8.635 107.82 8.205C107.73 7.765 107.605 7.405 107.445 7.125C107.295 6.835 107.115 6.605 106.905 6.435C106.695 6.265 106.455 6.145 106.185 6.075C105.915 6.005 105.63 5.97 105.33 5.97C105.04 5.97 104.765 6.005 104.505 6.075C104.245 6.145 104.005 6.265 103.785 6.435C103.575 6.595 103.39 6.82 103.23 7.11C103.08 7.4 102.96 7.765 102.87 8.205C102.79 8.635 102.75 9.15 102.75 9.75C102.75 10.35 102.79 10.865 102.87 11.295C102.96 11.715 103.085 12.07 103.245 12.36C103.405 12.65 103.59 12.88 103.8 13.05C104.02 13.22 104.255 13.34 104.505 13.41C104.765 13.48 105.04 13.515 105.33 13.515ZM105.345 15.15C104.775 15.15 104.25 15.095 103.77 14.985C103.29 14.865 102.855 14.68 102.465 14.43C102.075 14.17 101.745 13.835 101.475 13.425C101.215 13.005 101.01 12.495 100.86 11.895C100.72 11.285 100.65 10.57 100.65 9.75C100.65 8.93 100.715 8.22 100.845 7.62C100.985 7.02 101.185 6.515 101.445 6.105C101.715 5.685 102.045 5.345 102.435 5.085C102.825 4.815 103.26 4.625 103.74 4.515C104.22 4.405 104.755 4.35 105.345 4.35C105.925 4.35 106.46 4.41 106.95 4.53C107.44 4.64 107.875 4.82 108.255 5.07C108.635 5.32 108.96 5.655 109.23 6.075C109.5 6.485 109.705 6.99 109.845 7.59C109.985 8.19 110.055 8.895 110.055 9.705C110.055 10.545 109.985 11.27 109.845 11.88C109.705 12.49 109.495 13.005 109.215 13.425C108.945 13.835 108.62 14.17 108.24 14.43C107.86 14.68 107.425 14.865 106.935 14.985C106.455 15.095 105.925 15.15 105.345 15.15ZM123.049 15.15C122.759 15.15 122.474 15.105 122.194 15.015C121.914 14.925 121.629 14.785 121.339 14.595C121.049 14.395 120.754 14.145 120.454 13.845C120.154 13.535 119.839 13.17 119.509 12.75C119.179 12.32 118.834 11.835 118.474 11.295C118.404 11.305 118.294 11.31 118.144 11.31C118.004 11.31 117.899 11.31 117.829 11.31C117.639 11.31 117.434 11.31 117.214 11.31C117.004 11.31 116.794 11.305 116.584 11.295V15H114.514V4.485C115.054 4.455 115.544 4.43 115.984 4.41C116.434 4.39 116.849 4.375 117.229 4.365C117.619 4.355 117.984 4.35 118.324 4.35C119.134 4.35 119.824 4.41 120.394 4.53C120.964 4.64 121.429 4.825 121.789 5.085C122.149 5.335 122.409 5.665 122.569 6.075C122.739 6.485 122.824 6.975 122.824 7.545C122.824 8.145 122.729 8.66 122.539 9.09C122.359 9.51 122.099 9.855 121.759 10.125C121.419 10.395 121.014 10.61 120.544 10.77C120.844 11.17 121.124 11.52 121.384 11.82C121.654 12.11 121.899 12.355 122.119 12.555C122.349 12.745 122.559 12.89 122.749 12.99C122.939 13.09 123.124 13.14 123.304 13.14C123.334 13.14 123.369 13.14 123.409 13.14C123.459 13.13 123.504 13.125 123.544 13.125V15.105C123.484 15.115 123.414 15.125 123.334 15.135C123.254 15.145 123.159 15.15 123.049 15.15ZM118.264 9.66C118.674 9.66 119.029 9.63 119.329 9.57C119.639 9.5 119.894 9.395 120.094 9.255C120.294 9.115 120.444 8.93 120.544 8.7C120.644 8.46 120.694 8.165 120.694 7.815C120.694 7.375 120.624 7.025 120.484 6.765C120.344 6.495 120.104 6.3 119.764 6.18C119.424 6.06 118.959 6 118.369 6C118.199 6 118.049 6 117.919 6C117.789 6 117.659 6.005 117.529 6.015C117.409 6.015 117.274 6.02 117.124 6.03C116.974 6.03 116.794 6.04 116.584 6.06V9.615C116.754 9.625 116.909 9.635 117.049 9.645C117.189 9.645 117.324 9.65 117.454 9.66C117.594 9.66 117.724 9.66 117.844 9.66C117.974 9.66 118.114 9.66 118.264 9.66Z" fill="#627D94"/>
<line y1="18.75" x2="124.661" y2="18.75" stroke="#627D94" stroke-width="0.5"/>
</svg>
