<svg width="62" height="23" viewBox="0 0 62 23" fill="none" xmlns="http://www.w3.org/2000/svg">
<path d="M0.915 15V4.47H2.865L7.44 11.805V4.5H9.27V15.03H7.335L2.76 7.8V15H0.915ZM18.4007 13.515C18.7107 13.515 18.9957 13.48 19.2557 13.41C19.5257 13.34 19.7657 13.22 19.9757 13.05C20.1957 12.87 20.3807 12.64 20.5307 12.36C20.6907 12.08 20.8107 11.725 20.8907 11.295C20.9807 10.855 21.0257 10.34 21.0257 9.75C21.0257 9.15 20.9807 8.635 20.8907 8.205C20.8007 7.765 20.6757 7.405 20.5157 7.125C20.3657 6.835 20.1857 6.605 19.9757 6.435C19.7657 6.265 19.5257 6.145 19.2557 6.075C18.9857 6.005 18.7007 5.97 18.4007 5.97C18.1107 5.97 17.8357 6.005 17.5757 6.075C17.3157 6.145 17.0757 6.265 16.8557 6.435C16.6457 6.595 16.4607 6.82 16.3007 7.11C16.1507 7.4 16.0307 7.765 15.9407 8.205C15.8607 8.635 15.8207 9.15 15.8207 9.75C15.8207 10.35 15.8607 10.865 15.9407 11.295C16.0307 11.715 16.1557 12.07 16.3157 12.36C16.4757 12.65 16.6607 12.88 16.8707 13.05C17.0907 13.22 17.3257 13.34 17.5757 13.41C17.8357 13.48 18.1107 13.515 18.4007 13.515ZM18.4157 15.15C17.8457 15.15 17.3207 15.095 16.8407 14.985C16.3607 14.865 15.9257 14.68 15.5357 14.43C15.1457 14.17 14.8157 13.835 14.5457 13.425C14.2857 13.005 14.0807 12.495 13.9307 11.895C13.7907 11.285 13.7207 10.57 13.7207 9.75C13.7207 8.93 13.7857 8.22 13.9157 7.62C14.0557 7.02 14.2557 6.515 14.5157 6.105C14.7857 5.685 15.1157 5.345 15.5057 5.085C15.8957 4.815 16.3307 4.625 16.8107 4.515C17.2907 4.405 17.8257 4.35 18.4157 4.35C18.9957 4.35 19.5307 4.41 20.0207 4.53C20.5107 4.64 20.9457 4.82 21.3257 5.07C21.7057 5.32 22.0307 5.655 22.3007 6.075C22.5707 6.485 22.7757 6.99 22.9157 7.59C23.0557 8.19 23.1257 8.895 23.1257 9.705C23.1257 10.545 23.0557 11.27 22.9157 11.88C22.7757 12.49 22.5657 13.005 22.2857 13.425C22.0157 13.835 21.6907 14.17 21.3107 14.43C20.9307 14.68 20.4957 14.865 20.0057 14.985C19.5257 15.095 18.9957 15.15 18.4157 15.15ZM34.867 6.315H31.732V15H29.677V6.315H26.527V4.5H34.867V6.315ZM38.9921 15V4.5H46.1921V6.3H41.0771V8.73H45.8321V10.485H41.0771V13.2H46.4621V15H38.9921ZM58.0705 4.845L57.6805 6.45C57.4805 6.38 57.2555 6.32 57.0055 6.27C56.7555 6.21 56.4955 6.16 56.2255 6.12C55.9655 6.08 55.7005 6.05 55.4305 6.03C55.1605 6.01 54.9055 6 54.6655 6C54.0055 6 53.4855 6.105 53.1055 6.315C52.7355 6.515 52.5505 6.82 52.5505 7.23C52.5505 7.43 52.6005 7.61 52.7005 7.77C52.8105 7.92 52.9755 8.065 53.1955 8.205C53.4155 8.345 53.7055 8.48 54.0655 8.61C54.4355 8.74 54.8755 8.875 55.3855 9.015C55.9255 9.165 56.3955 9.34 56.7955 9.54C57.1955 9.73 57.5255 9.945 57.7855 10.185C58.0555 10.425 58.2505 10.705 58.3705 11.025C58.5005 11.335 58.5655 11.695 58.5655 12.105C58.5655 12.755 58.3905 13.305 58.0405 13.755C57.7005 14.205 57.1955 14.55 56.5255 14.79C55.8655 15.03 55.0555 15.15 54.0955 15.15C53.7855 15.15 53.4555 15.135 53.1055 15.105C52.7555 15.075 52.4005 15.035 52.0405 14.985C51.6905 14.925 51.3505 14.855 51.0205 14.775C50.6905 14.695 50.3955 14.605 50.1355 14.505L50.5405 12.915C50.8105 13.005 51.1005 13.09 51.4105 13.17C51.7205 13.24 52.0355 13.305 52.3555 13.365C52.6755 13.415 52.9955 13.455 53.3155 13.485C53.6355 13.515 53.9355 13.53 54.2155 13.53C54.7055 13.53 55.1155 13.485 55.4455 13.395C55.7755 13.295 56.0205 13.15 56.1805 12.96C56.3505 12.77 56.4355 12.54 56.4355 12.27C56.4355 12.06 56.3705 11.875 56.2405 11.715C56.1105 11.555 55.9155 11.415 55.6555 11.295C55.3955 11.165 55.0605 11.03 54.6505 10.89C54.2505 10.75 53.7805 10.595 53.2405 10.425C52.7605 10.255 52.3405 10.075 51.9805 9.885C51.6305 9.695 51.3405 9.48 51.1105 9.24C50.8805 8.99 50.7055 8.71 50.5855 8.4C50.4755 8.09 50.4205 7.74 50.4205 7.35C50.4205 6.91 50.5055 6.51 50.6755 6.15C50.8455 5.78 51.1005 5.46 51.4405 5.19C51.7905 4.92 52.2305 4.715 52.7605 4.575C53.3005 4.425 53.9305 4.35 54.6505 4.35C55.0805 4.35 55.5055 4.375 55.9255 4.425C56.3555 4.465 56.7555 4.525 57.1255 4.605C57.5055 4.675 57.8205 4.755 58.0705 4.845Z" fill="#627D94"/>
<line y1="18.75" x2="59" y2="18.75" stroke="#627D94" stroke-width="0.5"/>
</svg>
